<mxfile host="Electron" agent="Mozilla/5.0 (Macintosh; Intel Mac OS X 10_15_7) AppleWebKit/537.36 (KHTML, like Gecko) draw.io/26.0.9 Chrome/128.0.6613.186 Electron/32.2.5 Safari/537.36" version="26.0.9">
  <diagram id="sq3pNTD0vdpINx74vJhB" name="Page-1">
    <mxGraphModel dx="1114" dy="999" grid="1" gridSize="10" guides="1" tooltips="1" connect="1" arrows="1" fold="1" page="1" pageScale="1" pageWidth="1169" pageHeight="827" math="0" shadow="0">
      <root>
        <mxCell id="0" />
        <mxCell id="1" parent="0" />
        <mxCell id="TxJQDLYJsaL1yWCamA7V-2" value="" style="rounded=0;whiteSpace=wrap;html=1;fillStyle=hatch;dashed=1;" parent="1" vertex="1">
          <mxGeometry x="70" y="153" width="190" height="550" as="geometry" />
        </mxCell>
        <mxCell id="TxJQDLYJsaL1yWCamA7V-3" value="Sources" style="rounded=1;whiteSpace=wrap;html=1;fillStyle=auto;strokeColor=none;fontSize=24;" parent="1" vertex="1">
          <mxGeometry x="105" y="123" width="120" height="60" as="geometry" />
        </mxCell>
        <mxCell id="TxJQDLYJsaL1yWCamA7V-4" value="Bronze Layer" style="rounded=1;whiteSpace=wrap;html=1;fillColor=#ffe6cc;strokeColor=#d79b00;fontSize=24;" parent="1" vertex="1">
          <mxGeometry x="320" y="153" width="220" height="50" as="geometry" />
        </mxCell>
        <mxCell id="TxJQDLYJsaL1yWCamA7V-5" value="" style="rounded=1;whiteSpace=wrap;html=1;fillStyle=hatch;fillColor=#ffe6cc;strokeColor=#d79b00;" parent="1" vertex="1">
          <mxGeometry x="320" y="213" width="220" height="490" as="geometry" />
        </mxCell>
        <mxCell id="PGuWjC2bMHtSwCkBJZqt-11" style="edgeStyle=orthogonalEdgeStyle;rounded=0;orthogonalLoop=1;jettySize=auto;html=1;exitX=1;exitY=0.5;exitDx=0;exitDy=0;" parent="1" source="TxJQDLYJsaL1yWCamA7V-6" target="PGuWjC2bMHtSwCkBJZqt-3" edge="1">
          <mxGeometry relative="1" as="geometry" />
        </mxCell>
        <mxCell id="TxJQDLYJsaL1yWCamA7V-6" value="crm_sales_details" style="rounded=1;whiteSpace=wrap;html=1;fillColor=#ffe6cc;strokeColor=#d79b00;fontSize=16;" parent="1" vertex="1">
          <mxGeometry x="345" y="273" width="170" height="40" as="geometry" />
        </mxCell>
        <mxCell id="PGuWjC2bMHtSwCkBJZqt-12" style="edgeStyle=orthogonalEdgeStyle;rounded=0;orthogonalLoop=1;jettySize=auto;html=1;exitX=1;exitY=0.5;exitDx=0;exitDy=0;entryX=0;entryY=0.5;entryDx=0;entryDy=0;" parent="1" source="TxJQDLYJsaL1yWCamA7V-7" target="PGuWjC2bMHtSwCkBJZqt-4" edge="1">
          <mxGeometry relative="1" as="geometry" />
        </mxCell>
        <mxCell id="TxJQDLYJsaL1yWCamA7V-7" value="crm_cust_info" style="rounded=1;whiteSpace=wrap;html=1;fillColor=#ffe6cc;strokeColor=#d79b00;fontSize=16;" parent="1" vertex="1">
          <mxGeometry x="345" y="323" width="170" height="40" as="geometry" />
        </mxCell>
        <mxCell id="PGuWjC2bMHtSwCkBJZqt-13" style="edgeStyle=orthogonalEdgeStyle;rounded=0;orthogonalLoop=1;jettySize=auto;html=1;exitX=1;exitY=0.5;exitDx=0;exitDy=0;entryX=0;entryY=0.5;entryDx=0;entryDy=0;" parent="1" source="TxJQDLYJsaL1yWCamA7V-8" target="PGuWjC2bMHtSwCkBJZqt-5" edge="1">
          <mxGeometry relative="1" as="geometry" />
        </mxCell>
        <mxCell id="TxJQDLYJsaL1yWCamA7V-8" value="crm_prd_info" style="rounded=1;whiteSpace=wrap;html=1;fillColor=#ffe6cc;strokeColor=#d79b00;fontSize=16;" parent="1" vertex="1">
          <mxGeometry x="345" y="376.5" width="170" height="40" as="geometry" />
        </mxCell>
        <mxCell id="TxJQDLYJsaL1yWCamA7V-30" style="edgeStyle=orthogonalEdgeStyle;rounded=0;orthogonalLoop=1;jettySize=auto;html=1;entryX=0;entryY=0.5;entryDx=0;entryDy=0;" parent="1" source="TxJQDLYJsaL1yWCamA7V-9" target="TxJQDLYJsaL1yWCamA7V-6" edge="1">
          <mxGeometry relative="1" as="geometry" />
        </mxCell>
        <mxCell id="TxJQDLYJsaL1yWCamA7V-32" style="edgeStyle=orthogonalEdgeStyle;rounded=0;orthogonalLoop=1;jettySize=auto;html=1;entryX=0;entryY=0.5;entryDx=0;entryDy=0;" parent="1" source="TxJQDLYJsaL1yWCamA7V-9" target="TxJQDLYJsaL1yWCamA7V-7" edge="1">
          <mxGeometry relative="1" as="geometry" />
        </mxCell>
        <mxCell id="TxJQDLYJsaL1yWCamA7V-33" style="edgeStyle=orthogonalEdgeStyle;rounded=0;orthogonalLoop=1;jettySize=auto;html=1;entryX=0;entryY=0.5;entryDx=0;entryDy=0;" parent="1" source="TxJQDLYJsaL1yWCamA7V-9" target="TxJQDLYJsaL1yWCamA7V-8" edge="1">
          <mxGeometry relative="1" as="geometry" />
        </mxCell>
        <mxCell id="TxJQDLYJsaL1yWCamA7V-9" value="" style="image;aspect=fixed;html=1;points=[];align=center;fontSize=12;image=img/lib/azure2/general/Folder_Blank.svg;" parent="1" vertex="1">
          <mxGeometry x="136.66" y="320" width="56.68" height="46" as="geometry" />
        </mxCell>
        <mxCell id="TxJQDLYJsaL1yWCamA7V-10" value="CRM" style="text;html=1;align=center;verticalAlign=middle;whiteSpace=wrap;rounded=0;fontSize=16;" parent="1" vertex="1">
          <mxGeometry x="135" y="366" width="60" height="30" as="geometry" />
        </mxCell>
        <mxCell id="PGuWjC2bMHtSwCkBJZqt-14" style="edgeStyle=orthogonalEdgeStyle;rounded=0;orthogonalLoop=1;jettySize=auto;html=1;exitX=1;exitY=0.5;exitDx=0;exitDy=0;" parent="1" source="TxJQDLYJsaL1yWCamA7V-34" target="PGuWjC2bMHtSwCkBJZqt-6" edge="1">
          <mxGeometry relative="1" as="geometry" />
        </mxCell>
        <mxCell id="TxJQDLYJsaL1yWCamA7V-34" value="erp_cust_az12" style="rounded=1;whiteSpace=wrap;html=1;fillColor=#ffe6cc;strokeColor=#d79b00;fontSize=16;" parent="1" vertex="1">
          <mxGeometry x="345" y="463" width="170" height="40" as="geometry" />
        </mxCell>
        <mxCell id="PGuWjC2bMHtSwCkBJZqt-15" style="edgeStyle=orthogonalEdgeStyle;rounded=0;orthogonalLoop=1;jettySize=auto;html=1;exitX=1;exitY=0.5;exitDx=0;exitDy=0;" parent="1" source="TxJQDLYJsaL1yWCamA7V-35" target="PGuWjC2bMHtSwCkBJZqt-7" edge="1">
          <mxGeometry relative="1" as="geometry" />
        </mxCell>
        <mxCell id="TxJQDLYJsaL1yWCamA7V-35" value="erp_loc_a101" style="rounded=1;whiteSpace=wrap;html=1;fillColor=#ffe6cc;strokeColor=#d79b00;fontSize=16;" parent="1" vertex="1">
          <mxGeometry x="345" y="513" width="170" height="40" as="geometry" />
        </mxCell>
        <mxCell id="PGuWjC2bMHtSwCkBJZqt-16" style="edgeStyle=orthogonalEdgeStyle;rounded=0;orthogonalLoop=1;jettySize=auto;html=1;exitX=1;exitY=0.5;exitDx=0;exitDy=0;entryX=0;entryY=0.5;entryDx=0;entryDy=0;" parent="1" source="TxJQDLYJsaL1yWCamA7V-36" target="PGuWjC2bMHtSwCkBJZqt-8" edge="1">
          <mxGeometry relative="1" as="geometry" />
        </mxCell>
        <mxCell id="TxJQDLYJsaL1yWCamA7V-36" value="erp_px_cat_g1v2" style="rounded=1;whiteSpace=wrap;html=1;fillColor=#ffe6cc;strokeColor=#d79b00;fontSize=16;" parent="1" vertex="1">
          <mxGeometry x="345" y="566.5" width="170" height="40" as="geometry" />
        </mxCell>
        <mxCell id="TxJQDLYJsaL1yWCamA7V-37" style="edgeStyle=orthogonalEdgeStyle;rounded=0;orthogonalLoop=1;jettySize=auto;html=1;entryX=0;entryY=0.5;entryDx=0;entryDy=0;" parent="1" source="TxJQDLYJsaL1yWCamA7V-40" target="TxJQDLYJsaL1yWCamA7V-34" edge="1">
          <mxGeometry relative="1" as="geometry" />
        </mxCell>
        <mxCell id="TxJQDLYJsaL1yWCamA7V-38" style="edgeStyle=orthogonalEdgeStyle;rounded=0;orthogonalLoop=1;jettySize=auto;html=1;entryX=0;entryY=0.5;entryDx=0;entryDy=0;" parent="1" source="TxJQDLYJsaL1yWCamA7V-40" target="TxJQDLYJsaL1yWCamA7V-35" edge="1">
          <mxGeometry relative="1" as="geometry" />
        </mxCell>
        <mxCell id="TxJQDLYJsaL1yWCamA7V-39" style="edgeStyle=orthogonalEdgeStyle;rounded=0;orthogonalLoop=1;jettySize=auto;html=1;entryX=0;entryY=0.5;entryDx=0;entryDy=0;" parent="1" source="TxJQDLYJsaL1yWCamA7V-40" target="TxJQDLYJsaL1yWCamA7V-36" edge="1">
          <mxGeometry relative="1" as="geometry" />
        </mxCell>
        <mxCell id="TxJQDLYJsaL1yWCamA7V-40" value="" style="image;aspect=fixed;html=1;points=[];align=center;fontSize=12;image=img/lib/azure2/general/Folder_Blank.svg;" parent="1" vertex="1">
          <mxGeometry x="136.66" y="510" width="56.68" height="46" as="geometry" />
        </mxCell>
        <mxCell id="TxJQDLYJsaL1yWCamA7V-41" value="CRM" style="text;html=1;align=center;verticalAlign=middle;whiteSpace=wrap;rounded=0;fontSize=16;" parent="1" vertex="1">
          <mxGeometry x="135" y="556" width="60" height="30" as="geometry" />
        </mxCell>
        <mxCell id="TxJQDLYJsaL1yWCamA7V-43" style="edgeStyle=orthogonalEdgeStyle;rounded=0;orthogonalLoop=1;jettySize=auto;html=1;exitX=0.5;exitY=1;exitDx=0;exitDy=0;" parent="1" source="TxJQDLYJsaL1yWCamA7V-5" target="TxJQDLYJsaL1yWCamA7V-5" edge="1">
          <mxGeometry relative="1" as="geometry" />
        </mxCell>
        <mxCell id="TxJQDLYJsaL1yWCamA7V-44" style="edgeStyle=orthogonalEdgeStyle;rounded=0;orthogonalLoop=1;jettySize=auto;html=1;exitX=0.5;exitY=1;exitDx=0;exitDy=0;" parent="1" source="TxJQDLYJsaL1yWCamA7V-5" target="TxJQDLYJsaL1yWCamA7V-5" edge="1">
          <mxGeometry relative="1" as="geometry" />
        </mxCell>
        <mxCell id="PGuWjC2bMHtSwCkBJZqt-1" value="Silver Layer" style="rounded=1;whiteSpace=wrap;html=1;fillColor=#f5f5f5;strokeColor=#666666;fontSize=24;fontColor=#333333;" parent="1" vertex="1">
          <mxGeometry x="600" y="153" width="220" height="50" as="geometry" />
        </mxCell>
        <mxCell id="PGuWjC2bMHtSwCkBJZqt-2" value="" style="rounded=1;whiteSpace=wrap;html=1;fillStyle=hatch;fillColor=#f5f5f5;strokeColor=#666666;fontColor=#333333;" parent="1" vertex="1">
          <mxGeometry x="600" y="213" width="220" height="490" as="geometry" />
        </mxCell>
        <mxCell id="PGuWjC2bMHtSwCkBJZqt-3" value="crm_sales_details" style="rounded=1;whiteSpace=wrap;html=1;fillColor=#f5f5f5;strokeColor=#666666;fontSize=16;fontColor=#333333;" parent="1" vertex="1">
          <mxGeometry x="625" y="273" width="170" height="40" as="geometry" />
        </mxCell>
        <mxCell id="PGuWjC2bMHtSwCkBJZqt-4" value="crm_cust_info" style="rounded=1;whiteSpace=wrap;html=1;fillColor=#f5f5f5;strokeColor=#666666;fontSize=16;fontColor=#333333;" parent="1" vertex="1">
          <mxGeometry x="625" y="323" width="170" height="40" as="geometry" />
        </mxCell>
        <mxCell id="PGuWjC2bMHtSwCkBJZqt-5" value="crm_prd_info" style="rounded=1;whiteSpace=wrap;html=1;fillColor=#f5f5f5;strokeColor=#666666;fontSize=16;fontColor=#333333;" parent="1" vertex="1">
          <mxGeometry x="625" y="376.5" width="170" height="40" as="geometry" />
        </mxCell>
        <mxCell id="PGuWjC2bMHtSwCkBJZqt-6" value="&lt;span style=&quot;color: rgb(0, 0, 0);&quot;&gt;erp_cust_az12&lt;/span&gt;" style="rounded=1;whiteSpace=wrap;html=1;fillColor=#f5f5f5;strokeColor=#666666;fontSize=16;fontColor=#333333;" parent="1" vertex="1">
          <mxGeometry x="625" y="463" width="170" height="40" as="geometry" />
        </mxCell>
        <mxCell id="PGuWjC2bMHtSwCkBJZqt-7" value="&lt;span style=&quot;color: rgb(0, 0, 0);&quot;&gt;erp_loc_a101&lt;/span&gt;" style="rounded=1;whiteSpace=wrap;html=1;fillColor=#f5f5f5;strokeColor=#666666;fontSize=16;fontColor=#333333;" parent="1" vertex="1">
          <mxGeometry x="625" y="513" width="170" height="40" as="geometry" />
        </mxCell>
        <mxCell id="PGuWjC2bMHtSwCkBJZqt-8" value="&lt;span style=&quot;color: rgb(0, 0, 0);&quot;&gt;erp_px_cat_g1v2&lt;/span&gt;" style="rounded=1;whiteSpace=wrap;html=1;fillColor=#f5f5f5;strokeColor=#666666;fontSize=16;fontColor=#333333;" parent="1" vertex="1">
          <mxGeometry x="625" y="566.5" width="170" height="40" as="geometry" />
        </mxCell>
        <mxCell id="PGuWjC2bMHtSwCkBJZqt-9" style="edgeStyle=orthogonalEdgeStyle;rounded=0;orthogonalLoop=1;jettySize=auto;html=1;exitX=0.5;exitY=1;exitDx=0;exitDy=0;fillColor=#f5f5f5;strokeColor=#666666;" parent="1" source="PGuWjC2bMHtSwCkBJZqt-2" target="PGuWjC2bMHtSwCkBJZqt-2" edge="1">
          <mxGeometry relative="1" as="geometry" />
        </mxCell>
        <mxCell id="PGuWjC2bMHtSwCkBJZqt-10" style="edgeStyle=orthogonalEdgeStyle;rounded=0;orthogonalLoop=1;jettySize=auto;html=1;exitX=0.5;exitY=1;exitDx=0;exitDy=0;fillColor=#f5f5f5;strokeColor=#666666;" parent="1" source="PGuWjC2bMHtSwCkBJZqt-2" target="PGuWjC2bMHtSwCkBJZqt-2" edge="1">
          <mxGeometry relative="1" as="geometry" />
        </mxCell>
        <mxCell id="yLa7j3LIph2AXbTlKBRP-1" value="Gold Layer" style="rounded=1;whiteSpace=wrap;html=1;fillColor=#fff2cc;strokeColor=#d6b656;fontSize=24;" vertex="1" parent="1">
          <mxGeometry x="880" y="153" width="220" height="50" as="geometry" />
        </mxCell>
        <mxCell id="yLa7j3LIph2AXbTlKBRP-2" value="" style="rounded=1;whiteSpace=wrap;html=1;fillStyle=hatch;fillColor=#fff2cc;strokeColor=#d6b656;" vertex="1" parent="1">
          <mxGeometry x="880" y="213" width="220" height="490" as="geometry" />
        </mxCell>
        <mxCell id="yLa7j3LIph2AXbTlKBRP-3" value="fact_sales" style="rounded=1;whiteSpace=wrap;html=1;fillColor=#fff2cc;strokeColor=#d6b656;fontSize=16;" vertex="1" parent="1">
          <mxGeometry x="905" y="323" width="170" height="40" as="geometry" />
        </mxCell>
        <mxCell id="yLa7j3LIph2AXbTlKBRP-4" value="dim_customers" style="rounded=1;whiteSpace=wrap;html=1;fillColor=#fff2cc;strokeColor=#d6b656;fontSize=16;" vertex="1" parent="1">
          <mxGeometry x="905" y="427" width="170" height="40" as="geometry" />
        </mxCell>
        <mxCell id="yLa7j3LIph2AXbTlKBRP-5" value="dim_products" style="rounded=1;whiteSpace=wrap;html=1;fillColor=#fff2cc;strokeColor=#d6b656;fontSize=16;" vertex="1" parent="1">
          <mxGeometry x="905" y="516" width="170" height="40" as="geometry" />
        </mxCell>
        <mxCell id="yLa7j3LIph2AXbTlKBRP-9" style="edgeStyle=orthogonalEdgeStyle;rounded=0;orthogonalLoop=1;jettySize=auto;html=1;exitX=0.5;exitY=1;exitDx=0;exitDy=0;fillColor=#fff2cc;strokeColor=#d6b656;" edge="1" parent="1" source="yLa7j3LIph2AXbTlKBRP-2" target="yLa7j3LIph2AXbTlKBRP-2">
          <mxGeometry relative="1" as="geometry" />
        </mxCell>
        <mxCell id="yLa7j3LIph2AXbTlKBRP-10" style="edgeStyle=orthogonalEdgeStyle;rounded=0;orthogonalLoop=1;jettySize=auto;html=1;exitX=0.5;exitY=1;exitDx=0;exitDy=0;fillColor=#fff2cc;strokeColor=#d6b656;" edge="1" parent="1" source="yLa7j3LIph2AXbTlKBRP-2" target="yLa7j3LIph2AXbTlKBRP-2">
          <mxGeometry relative="1" as="geometry" />
        </mxCell>
        <mxCell id="yLa7j3LIph2AXbTlKBRP-12" value="" style="endArrow=classic;html=1;rounded=0;exitX=1;exitY=0.5;exitDx=0;exitDy=0;entryX=0;entryY=0.5;entryDx=0;entryDy=0;jumpStyle=gap;" edge="1" parent="1" source="PGuWjC2bMHtSwCkBJZqt-3" target="yLa7j3LIph2AXbTlKBRP-3">
          <mxGeometry width="50" height="50" relative="1" as="geometry">
            <mxPoint x="830" y="396" as="sourcePoint" />
            <mxPoint x="880" y="346" as="targetPoint" />
          </mxGeometry>
        </mxCell>
        <mxCell id="yLa7j3LIph2AXbTlKBRP-13" value="" style="endArrow=classic;html=1;rounded=0;exitX=1;exitY=0.5;exitDx=0;exitDy=0;entryX=0;entryY=0.5;entryDx=0;entryDy=0;jumpStyle=gap;" edge="1" parent="1" target="yLa7j3LIph2AXbTlKBRP-4">
          <mxGeometry width="50" height="50" relative="1" as="geometry">
            <mxPoint x="795" y="343.75" as="sourcePoint" />
            <mxPoint x="905" y="449.25" as="targetPoint" />
          </mxGeometry>
        </mxCell>
        <mxCell id="yLa7j3LIph2AXbTlKBRP-15" value="" style="endArrow=classic;html=1;rounded=0;exitX=1;exitY=0.5;exitDx=0;exitDy=0;entryX=0;entryY=0.5;entryDx=0;entryDy=0;jumpStyle=gap;" edge="1" parent="1" source="PGuWjC2bMHtSwCkBJZqt-7" target="yLa7j3LIph2AXbTlKBRP-4">
          <mxGeometry width="50" height="50" relative="1" as="geometry">
            <mxPoint x="830" y="520.5" as="sourcePoint" />
            <mxPoint x="880" y="470.5" as="targetPoint" />
          </mxGeometry>
        </mxCell>
        <mxCell id="yLa7j3LIph2AXbTlKBRP-16" value="" style="endArrow=classic;html=1;rounded=0;exitX=1;exitY=0.5;exitDx=0;exitDy=0;entryX=0;entryY=0.5;entryDx=0;entryDy=0;jumpStyle=gap;" edge="1" parent="1" source="PGuWjC2bMHtSwCkBJZqt-6" target="yLa7j3LIph2AXbTlKBRP-4">
          <mxGeometry width="50" height="50" relative="1" as="geometry">
            <mxPoint x="830" y="583" as="sourcePoint" />
            <mxPoint x="870" y="520.5" as="targetPoint" />
          </mxGeometry>
        </mxCell>
        <mxCell id="yLa7j3LIph2AXbTlKBRP-17" value="" style="endArrow=classic;html=1;rounded=0;exitX=1;exitY=0.5;exitDx=0;exitDy=0;entryX=0;entryY=0.5;entryDx=0;entryDy=0;jumpStyle=gap;" edge="1" parent="1" source="PGuWjC2bMHtSwCkBJZqt-8" target="yLa7j3LIph2AXbTlKBRP-5">
          <mxGeometry width="50" height="50" relative="1" as="geometry">
            <mxPoint x="840" y="596" as="sourcePoint" />
            <mxPoint x="890" y="546" as="targetPoint" />
          </mxGeometry>
        </mxCell>
        <mxCell id="yLa7j3LIph2AXbTlKBRP-18" value="" style="endArrow=classic;html=1;rounded=0;exitX=1;exitY=0.5;exitDx=0;exitDy=0;entryX=0;entryY=0.5;entryDx=0;entryDy=0;jumpStyle=gap;" edge="1" parent="1" source="PGuWjC2bMHtSwCkBJZqt-5" target="yLa7j3LIph2AXbTlKBRP-5">
          <mxGeometry width="50" height="50" relative="1" as="geometry">
            <mxPoint x="870" y="623" as="sourcePoint" />
            <mxPoint x="920" y="573" as="targetPoint" />
          </mxGeometry>
        </mxCell>
        <mxCell id="yLa7j3LIph2AXbTlKBRP-19" value="Data Flow Diagram" style="text;html=1;align=center;verticalAlign=middle;whiteSpace=wrap;rounded=0;fontSize=20;fontStyle=5" vertex="1" parent="1">
          <mxGeometry x="55" y="60" width="220" height="30" as="geometry" />
        </mxCell>
      </root>
    </mxGraphModel>
  </diagram>
</mxfile>
